<svg width="175" height="31" viewBox="0 0 175 31" fill="none" xmlns="http://www.w3.org/2000/svg">
<path d="M7.82417 15.8923C8.62395 14.225 9.98357 12.2067 11.7431 9.92515C12.7028 8.69662 13.3426 7.90686 13.6625 7.4681V8.43337C13.6625 10.4517 13.8225 13.0842 14.2224 16.1555C13.2627 16.2433 11.903 16.331 10.1435 16.331L7.58424 16.2433L7.82417 15.8923ZM10.1435 18.086C11.5831 18.086 13.0227 17.9983 14.3823 17.8228C15.1021 22.6491 16.1418 25.0184 17.5015 25.0184C18.0613 25.0184 18.7811 24.5797 19.5809 23.7899C18.7011 23.1756 17.9813 21.8594 17.5814 19.7533C16.7817 15.98 16.3818 12.2944 16.3818 8.60887C16.3818 7.20485 16.5417 5.71307 16.7817 4.13354C15.502 4.3968 14.5423 4.66005 14.1424 4.92331C13.6625 5.18656 13.0227 5.97633 12.063 7.20485C9.34374 10.7149 7.26433 13.6107 5.9047 15.7167L5.58479 16.2433H3.98524C2.22573 16.2433 1.18602 17.033 0.786133 18.5248C1.58591 18.086 2.62562 17.8228 4.06522 17.8228H4.70504L4.30515 18.5248C2.86555 21.0696 2.06578 22.9124 2.06578 24.1409C2.06578 24.7552 2.38569 25.0184 2.94553 25.0184C3.26544 25.0184 3.58535 24.9307 3.90526 24.8429C4.62506 24.5797 5.10493 24.4042 5.26488 24.3164C4.86499 24.0531 4.78502 23.7021 4.78502 23.3511C4.78502 22.2104 5.34486 20.6308 6.38457 18.5248L6.6245 17.9983L10.1435 18.086Z" fill="#231F20" stroke="#231F20"/>
<path d="M27.7386 15.8923C28.5384 14.225 29.898 12.2067 31.6575 9.92515C32.6173 8.69662 33.2571 7.90686 33.577 7.4681V8.43337C33.577 10.4517 33.737 13.0842 34.1369 16.1555C33.1771 16.2433 31.8175 16.331 30.058 16.331L27.4987 16.2433L27.7386 15.8923ZM30.058 18.086C31.4976 18.086 32.9372 17.9983 34.2968 17.8228C35.0166 22.6491 36.0563 25.0184 37.4159 25.0184C37.9758 25.0184 38.6956 24.5797 39.4954 23.7899C38.6156 23.1756 37.8958 21.8594 37.4959 19.7533C36.6961 15.98 36.2963 12.2944 36.2963 8.60887C36.2963 7.20485 36.4562 5.71307 36.6961 4.13354C35.4165 4.3968 34.4568 4.66005 34.0569 4.92331C33.4171 5.36207 32.7772 6.06408 31.8175 7.2926C29.0983 10.8027 27.0188 13.6985 25.6592 15.8045L25.3393 16.331H23.7398C21.9802 16.331 20.9405 17.1208 20.5406 18.6125C21.3404 18.1738 22.3801 17.9105 23.8197 17.9105H24.4596L24.0597 18.6125C22.6201 21.1573 21.8203 23.0001 21.8203 24.2286C21.8203 24.8429 22.1402 25.1062 22.7 25.1062C23.02 25.1062 23.3399 25.0184 23.6598 24.9307C24.3796 24.6674 24.8594 24.4919 25.0194 24.4042C24.7795 24.0531 24.6195 23.7899 24.6195 23.4389C24.6195 22.2981 25.1794 20.7186 26.2191 18.6125L26.459 18.086H30.058Z" fill="#231F20" stroke="#231F20"/>
<path d="M54.3712 6.06394C55.4109 6.06394 56.2906 6.32719 57.0904 6.8537C56.9305 5.80068 56.6905 5.01092 56.2906 4.65991C55.8908 4.30891 55.2509 4.04565 54.2912 4.04565C53.4914 4.04565 52.5317 4.13341 51.412 4.39666L50.2123 4.65991C48.6928 5.01092 47.5731 5.18642 46.8533 5.18642C46.2934 5.18642 45.8935 5.09867 45.4937 4.83542C45.6536 6.23944 46.2135 6.94145 47.3331 6.94145C47.6531 6.94145 48.3729 6.8537 49.6525 6.59045L47.1732 19.6654C46.5334 23 45.8136 25.2815 45.0138 26.51C44.214 27.7386 43.0943 28.3528 41.5747 28.3528C40.535 28.3528 39.7353 28.0896 39.0954 27.4753C38.4556 26.8611 38.2157 26.0713 38.2157 25.0183C37.096 25.7203 36.4562 26.51 36.4562 27.3876C36.4562 28.0896 36.8561 28.7038 37.7358 29.3181C38.6156 29.9324 39.5753 30.1956 40.615 30.1956C42.6145 30.1956 44.4539 29.2303 46.2934 27.2998C48.0529 25.3693 49.3326 22.298 50.1324 18.0859L52.3717 6.23944C53.1715 6.15169 53.8113 6.06394 54.3712 6.06394Z" fill="#231F20" stroke="#231F20"/>
<path d="M77.0049 6.85371C79.3242 6.85371 80.8438 6.67821 81.7235 6.23945C83.0832 5.53744 83.803 4.57217 83.803 3.4314C83.803 3.0804 83.643 2.72939 83.3231 2.20288C82.6033 3.95791 81.0037 4.83543 78.6844 4.83543H70.0468C68.4472 4.83543 67.4075 5.01093 66.9277 5.27418C66.4478 5.53744 66.0479 6.3272 65.808 7.46797C67.2476 7.02922 69.0071 6.85371 71.0065 6.85371H72.766L69.7269 22.8245C69.5669 23.702 69.487 24.3163 69.487 24.4918C69.487 24.8428 69.7269 25.0183 70.1268 25.0183C70.8466 25.0183 71.6463 24.755 72.5261 24.3163C72.4461 24.053 72.3662 23.7898 72.3662 23.5265C72.3662 23.2632 72.4461 22.7367 72.6061 21.8592L75.4853 6.76596H77.0049V6.85371Z" fill="#231F20" stroke="#231F20"/>
<path d="M86.2823 24.2286C86.2823 23.5266 86.6822 22.3858 87.402 20.8063C88.2018 19.2268 89.0815 17.6473 90.1213 16.1555C91.8008 13.7862 93.1604 12.5577 94.2801 12.5577C94.8399 12.5577 95.3198 12.9087 95.6397 13.6107C96.9194 12.5577 97.5592 11.7679 97.5592 11.1536C97.5592 10.7149 97.3992 10.4516 97.0793 10.1006C96.7594 9.83737 96.3595 9.66187 95.8797 9.66187C94.52 9.66187 93.0804 10.5394 91.4809 12.3822C89.8813 14.2249 88.2018 16.7697 86.6022 20.0165L87.322 16.1555C87.7219 14.0494 87.9619 12.8209 87.9619 12.2944C87.9619 11.5046 87.642 11.0659 87.0821 11.0659C86.5223 11.0659 85.8025 11.2414 84.9227 11.5924C85.1626 11.9434 85.3226 12.3822 85.3226 12.9087C85.3226 13.8739 85.1626 15.3657 84.7628 17.2962L84.1229 20.6308C83.803 22.2981 83.6431 23.2634 83.6431 23.7021C83.6431 24.4919 84.043 24.9306 84.9227 24.9306C85.2426 24.9306 85.7225 24.7551 86.2823 24.4919V24.2286Z" fill="#231F20" stroke="#231F20"/>
<path d="M108.356 13.9617C104.917 19.5778 102.598 22.2981 101.398 22.2981C100.278 22.2981 99.7186 21.4206 99.7186 19.5778C99.7186 17.2963 100.198 15.3657 101.158 13.7862C102.118 12.1189 103.238 11.3292 104.517 11.3292C105.717 11.3292 107.156 11.9434 108.996 13.172C108.516 13.6985 108.356 13.874 108.356 13.9617ZM108.196 19.1391C108.196 22.2981 109.076 23.9654 110.915 23.9654C112.355 23.9654 114.115 23.0001 116.114 20.9818C118.113 19.0513 119.953 16.5943 121.552 13.6107L120.593 12.9087C119.073 15.3657 117.474 17.4718 115.874 19.0513C114.274 20.6308 112.995 21.4206 112.115 21.4206C111.235 21.4206 110.835 20.4553 110.835 18.5248C110.835 16.8575 110.995 15.3657 111.235 14.1372L111.475 12.9965C111.715 11.6802 112.115 10.6272 112.595 9.8374C112.355 9.8374 112.195 9.8374 112.115 9.8374C110.516 9.8374 109.636 10.2762 109.396 11.0659C107.876 10.1884 106.517 9.8374 105.237 9.8374C103.078 9.8374 101.238 10.8904 99.6386 12.9965C98.039 15.1025 97.2393 17.5595 97.2393 20.3676C97.2393 21.7716 97.4792 22.9124 98.039 23.7021C98.5989 24.5797 99.3187 24.9307 100.198 24.9307C101.398 24.9307 102.758 24.1409 104.357 22.4736C105.957 20.8063 107.316 18.7881 108.356 16.5065C108.196 17.5595 108.196 18.4371 108.196 19.1391Z" fill="#231F20" stroke="#231F20"/>
<path d="M124.032 24.4041C124.512 24.1409 125.071 23.5266 125.791 22.6491C127.231 20.7186 128.51 18.7003 129.79 16.5942C130.99 14.4882 131.63 13.0842 131.63 12.4699C131.63 11.7679 130.99 11.1536 129.71 10.6271C129.55 12.1189 129.07 13.9617 128.031 16.0677C127.071 18.1738 125.871 20.1921 124.352 22.2103C123.952 18.6125 123.232 15.4535 122.272 12.9087C121.312 10.3639 120.353 9.04761 119.473 9.04761C118.913 9.04761 118.193 9.22311 117.474 9.66187C118.673 10.9781 119.713 12.9964 120.593 15.7167C121.472 18.3493 121.952 20.8063 121.952 23.0001C121.952 23.6144 121.872 24.2286 121.632 25.0184C122.752 24.8429 123.552 24.6674 124.032 24.4041Z" fill="#231F20" stroke="#231F20"/>
<path d="M137.228 12.9965C138.188 11.6802 139.308 11.0659 140.427 11.0659C141.387 11.0659 141.867 11.5924 141.867 12.7332C141.867 13.9617 141.227 15.1025 139.947 16.0678C138.668 17.033 137.148 17.5595 135.389 17.6473C135.629 15.8923 136.268 14.3127 137.228 12.9965ZM141.627 17.2085C143.466 15.98 144.346 14.576 144.346 12.9965C144.346 12.0312 144.026 11.2414 143.386 10.7149C142.747 10.1007 141.867 9.8374 140.747 9.8374C138.508 9.8374 136.508 10.7149 134.909 12.5577C133.309 14.4005 132.509 16.5943 132.509 19.1391C132.509 20.8941 132.989 22.2981 133.869 23.3511C134.749 24.4042 135.948 24.9307 137.468 24.9307C139.867 24.9307 142.347 23.8776 145.066 21.7716C147.705 19.6656 149.865 16.9453 151.544 13.6985L150.424 13.0842C148.665 16.0678 146.665 18.4371 144.426 20.2798C142.187 22.1226 140.187 23.0001 138.348 23.0001C136.268 23.0001 135.149 21.6839 135.149 19.0513C137.708 19.0513 139.787 18.4371 141.627 17.2085Z" fill="#231F20" stroke="#231F20"/>
<path d="M161.141 12.9964C158.822 16.9452 157.063 19.49 156.023 20.7185C154.983 21.947 153.943 22.5613 152.904 22.5613C151.864 22.5613 151.304 21.7715 151.304 20.2797C151.304 19.7532 151.464 18.788 151.704 17.2962L154.743 1.1499C153.783 1.85191 152.664 2.11517 151.384 2.11517C150.104 2.11517 148.985 1.85191 147.945 1.23765V1.58866C147.945 3.25594 148.905 4.13345 150.904 4.13345C151.144 4.13345 151.464 4.13345 151.784 4.0457L149.225 17.3839C148.985 18.7002 148.825 19.7532 148.825 20.4552C148.825 21.7715 149.145 22.8245 149.705 23.6143C150.344 24.4041 151.144 24.8428 152.104 24.8428C153.464 24.8428 155.063 23.8776 156.823 21.8593C158.582 19.841 160.342 17.1207 162.101 13.6106L161.141 12.9964Z" fill="#231F20" stroke="#231F20"/>
<path d="M164.341 22.5612C164.341 23.351 164.101 24.053 163.621 24.5795C163.141 25.106 162.581 25.3693 161.781 25.3693C160.742 25.3693 160.262 25.0183 160.262 24.3163C160.262 23.5265 161.541 22.4735 164.021 21.0695C164.261 21.596 164.341 22.1225 164.341 22.5612ZM173.378 13.4351L172.338 12.8208C171.059 14.3126 170.019 15.4534 169.219 16.1554C168.419 16.8574 167.14 17.7349 165.54 18.7879L164.421 16.5941L162.981 13.7861C164.421 12.9086 165.22 11.9433 165.22 10.8903C165.22 10.1883 164.66 9.57401 163.461 9.13525C161.621 10.1883 160.662 11.5045 160.662 13.2596C160.662 14.4003 161.301 16.0676 162.501 18.1737L163.541 19.9287C161.621 20.894 160.182 21.7715 159.382 22.4735C158.582 23.1755 158.102 23.8775 158.102 24.5795C158.102 25.1938 158.422 25.808 158.982 26.2468C159.622 26.6856 160.342 26.9488 161.141 26.9488C162.581 26.9488 163.861 26.4223 164.98 25.457C166.1 24.4918 166.58 23.2633 166.58 21.947C166.58 21.3327 166.42 20.7185 166.18 20.0164C169.139 18.1737 171.539 15.9799 173.378 13.4351Z" fill="#231F20" stroke="#231F20"/>
</svg>
